<svg width="20" height="20" viewBox="0 0 20 20" fill="none" xmlns="http://www.w3.org/2000/svg">
<path fill-rule="evenodd" clip-rule="evenodd" d="M8.30769 17.1429C12.8959 17.1429 16.6154 13.3053 16.6154 8.57143C16.6154 3.83756 12.8959 0 8.30769 0C3.71948 0 0 3.83756 0 8.57143C0 13.3053 3.71948 17.1429 8.30769 17.1429ZM8.30769 15.2381C11.8763 15.2381 14.7692 12.2533 14.7692 8.57143C14.7692 4.88953 11.8763 1.90476 8.30769 1.90476C4.73908 1.90476 1.84615 4.88953 1.84615 8.57143C1.84615 12.2533 4.73908 15.2381 8.30769 15.2381Z" fill="#212121"/>
<path fill-rule="evenodd" clip-rule="evenodd" d="M13.5011 13.2948C13.8616 12.9229 14.4461 12.9229 14.8066 13.2948L19.7296 18.3742C20.0901 18.7461 20.0901 19.3491 19.7296 19.7211C19.3692 20.093 18.7847 20.093 18.4242 19.7211L13.5011 14.6417C13.1406 14.2698 13.1406 13.6667 13.5011 13.2948Z" fill="#212121"/>
</svg>
